<?xml version="1.0" encoding="UTF-8"?>
<svg version="1.1" xmlns="http://www.w3.org/2000/svg" width="500" height="500">
<path d="M0 0 C165 0 330 0 500 0 C500 165 500 330 500 500 C335 500 170 500 0 500 C0 335 0 170 0 0 Z " fill="#FEFEFE" transform="translate(0,0)"/>
<path d="M0 0 C8.86773455 -0.09336407 17.73529561 -0.16409728 26.6034174 -0.20724869 C30.72285084 -0.22797659 34.84194397 -0.25601712 38.96118164 -0.30175781 C42.94885458 -0.34575207 46.93620367 -0.3692478 50.92410088 -0.37950897 C52.43289718 -0.38680565 53.94167913 -0.40104886 55.45033455 -0.42292023 C68.63964489 -0.60623361 84.68159739 0.44088363 94.92578125 9.75 C101.8601345 17.10070158 103.35634227 23.39139053 103.203125 33.36328125 C103 36 103 36 102 39 C112.89 39 123.78 39 135 39 C135 39.66 135 40.32 135 41 C134.37351562 41.10957031 133.74703125 41.21914062 133.1015625 41.33203125 C132.28429687 41.49058594 131.46703125 41.64914063 130.625 41.8125 C129.81289063 41.96332031 129.00078125 42.11414063 128.1640625 42.26953125 C125.64179359 42.87544942 125.64179359 42.87544942 124 46 C123.70970801 48.52645028 123.70970801 48.52645028 123.77294922 51.3894043 C123.77310028 52.49031906 123.77325134 53.59123383 123.77340698 54.72550964 C123.78372955 55.91308365 123.79405212 57.10065765 123.8046875 58.32421875 C123.8075174 59.54075638 123.81034729 60.75729401 123.81326294 62.01069641 C123.82447397 65.90306358 123.84958052 69.79520216 123.875 73.6875 C123.88502859 76.32356439 123.89415465 78.95963238 123.90234375 81.59570312 C123.92441634 88.06388032 123.95790312 94.53192383 124 101 C125.43008133 99.41441762 126.85967366 97.82839418 128.2890625 96.2421875 C129.08521973 95.35901855 129.88137695 94.47584961 130.70166016 93.56591797 C132.61128562 91.43396942 134.5017669 89.28886509 136.375 87.125 C139.82716078 83.15902924 143.38750881 79.29482354 146.94824219 75.42675781 C150.10325565 71.99380786 153.19991739 68.51880032 156.25390625 64.99609375 C158.33202021 62.62044222 160.44618976 60.27917439 162.5625 57.9375 C163.69171875 56.68066406 163.69171875 56.68066406 164.84375 55.3984375 C166.19222205 53.89850663 167.54560768 52.40296208 168.90625 50.9140625 C172.19883024 47.49648239 172.19883024 47.49648239 173 43 C169.37 42.34 165.74 41.68 162 41 C162 40.34 162 39.68 162 39 C172.23 39 182.46 39 193 39 C193 39.66 193 40.32 193 41 C192.2265625 41.06316406 191.453125 41.12632812 190.65625 41.19140625 C182.51982864 42.14803995 178.48500861 44.03676111 173 50 C171.95659689 51.09848111 170.91224527 52.1960617 169.8671875 53.29296875 C164.68118556 58.77938161 159.60527773 64.36319313 154.671875 70.078125 C152.64241927 72.41105074 150.572353 74.70511245 148.5 77 C146.99971761 78.66641247 145.49970668 80.33306939 144 82 C143.34386719 82.72703125 142.68773437 83.4540625 142.01171875 84.203125 C138.65491023 87.96965105 135.67512717 91.71979653 133 96 C133.9080162 97.13199353 134.82683826 98.25532363 135.75 99.375 C136.26046875 100.00148438 136.7709375 100.62796875 137.296875 101.2734375 C139.82467131 103.83602 141.84307579 104.89061133 145.4375 105.23046875 C146.283125 105.21628906 147.12875 105.20210938 148 105.1875 C148.845625 105.18105469 149.69125 105.17460937 150.5625 105.16796875 C152.83252477 105.01154076 154.81961604 104.63089814 157 104 C157.33 104.99 157.66 105.98 158 107 C161.18199952 104.06742087 163.64285583 100.85516824 166.16064453 97.36450195 C174.21695224 86.20753344 182.89753821 76.04865387 197 73 C211.98750186 71.68911342 223.41547394 73.52151841 235.5546875 82.859375 C244.53230477 90.71837542 249.04567921 101.05483316 250.29296875 112.74609375 C250.8112208 123.29322331 247.58730355 134.06727762 240.703125 142.203125 C240.14109375 142.79609375 239.5790625 143.3890625 239 144 C238.06414062 145.01320313 238.06414062 145.01320313 237.109375 146.046875 C229.48168415 153.56156302 220.29748846 158.19360448 209.56030273 158.45629883 C206.49943601 158.43070018 203.45258451 158.2992257 200.39697266 158.12207031 C197.92278389 157.99606763 195.45760141 157.95555584 192.98046875 157.9296875 C183.10364059 157.75264548 174.97643387 157.24760047 167.23828125 150.453125 C162.39738118 145.35268949 158.61521493 139.21322668 154.73071289 133.37182617 C154.27688232 132.6935376 153.82305176 132.01524902 153.35546875 131.31640625 C152.94965576 130.70224854 152.54384277 130.08809082 152.12573242 129.45532227 C151.0462555 127.84235786 151.0462555 127.84235786 149 127 C148.05640625 128.52367187 148.05640625 128.52367187 147.09375 130.078125 C141.87121986 138.48662391 136.5556118 146.80624852 131 155 C132.32 155 133.64 155 135 155 C135 155.66 135 156.32 135 157 C133.96230469 157.17015625 132.92460937 157.3403125 131.85546875 157.515625 C126.84423917 158.96071205 124.9851921 162.52103931 122.3125 166.75 C121.26849483 168.30836869 120.21890258 169.86300733 119.1640625 171.4140625 C118.6371582 172.19040039 118.11025391 172.96673828 117.56738281 173.76660156 C106.11206855 190.08953223 90.9767118 204.21741889 75 216 C73.71029297 216.98226562 73.71029297 216.98226562 72.39453125 217.984375 C51.62618918 233.29806279 28.43455249 237.04694626 3.08789062 233.60449219 C-19.56713637 229.31259452 -40.01597084 213.9786675 -52.87646484 195.16455078 C-56.96812183 188.83340454 -59.58545343 182.11153685 -62 175 C-62.41378906 173.86433594 -62.82757813 172.72867188 -63.25390625 171.55859375 C-70.24842511 149.74641822 -66.47400665 125.98684686 -56.1953125 105.94140625 C-44.67025262 84.6410841 -25.55937466 70.04645774 -2.6640625 62.96875 C2.38818991 61.62148269 6.76475427 60.94851466 12 61 C11.95840398 53.38241304 11.88614946 45.76556102 11.79248047 38.1484375 C11.76423893 35.55670812 11.74304035 32.96489211 11.72900391 30.37304688 C11.70761938 26.64928729 11.66098914 22.92657299 11.609375 19.203125 C11.60814636 18.04258606 11.60691772 16.88204712 11.60565186 15.68634033 C11.58593323 14.60552185 11.5662146 13.52470337 11.54589844 12.41113281 C11.53701599 11.46071106 11.52813354 10.51028931 11.51898193 9.53106689 C10.8425553 6.23214464 9.63336675 5.04502489 7 3 C3.35278304 2.19234122 3.35278304 2.19234122 0 2 C0 1.34 0 0.68 0 0 Z " fill="#FCFCFC" transform="translate(163,130)"/>
<path d="M0 0 C8.86773455 -0.09336407 17.73529561 -0.16409728 26.6034174 -0.20724869 C30.72285084 -0.22797659 34.84194397 -0.25601712 38.96118164 -0.30175781 C42.94885458 -0.34575207 46.93620367 -0.3692478 50.92410088 -0.37950897 C52.43289718 -0.38680565 53.94167913 -0.40104886 55.45033455 -0.42292023 C68.63964489 -0.60623361 84.68159739 0.44088363 94.92578125 9.75 C101.8601345 17.10070158 103.35634227 23.39139053 103.203125 33.36328125 C103 36 103 36 102 39 C112.89 39 123.78 39 135 39 C135 39.66 135 40.32 135 41 C134.37351562 41.10957031 133.74703125 41.21914062 133.1015625 41.33203125 C132.28429687 41.49058594 131.46703125 41.64914063 130.625 41.8125 C129.81289063 41.96332031 129.00078125 42.11414063 128.1640625 42.26953125 C125.64179359 42.87544942 125.64179359 42.87544942 124 46 C123.70970801 48.52645028 123.70970801 48.52645028 123.77294922 51.3894043 C123.77310028 52.49031906 123.77325134 53.59123383 123.77340698 54.72550964 C123.78372955 55.91308365 123.79405212 57.10065765 123.8046875 58.32421875 C123.8075174 59.54075638 123.81034729 60.75729401 123.81326294 62.01069641 C123.82447397 65.90306358 123.84958052 69.79520216 123.875 73.6875 C123.88502859 76.32356439 123.89415465 78.95963238 123.90234375 81.59570312 C123.92441634 88.06388032 123.95790312 94.53192383 124 101 C125.43008133 99.41441762 126.85967366 97.82839418 128.2890625 96.2421875 C129.08521973 95.35901855 129.88137695 94.47584961 130.70166016 93.56591797 C132.61128562 91.43396942 134.5017669 89.28886509 136.375 87.125 C139.82716078 83.15902924 143.38750881 79.29482354 146.94824219 75.42675781 C150.10325565 71.99380786 153.19991739 68.51880032 156.25390625 64.99609375 C158.33202021 62.62044222 160.44618976 60.27917439 162.5625 57.9375 C163.69171875 56.68066406 163.69171875 56.68066406 164.84375 55.3984375 C166.19222205 53.89850663 167.54560768 52.40296208 168.90625 50.9140625 C172.19883024 47.49648239 172.19883024 47.49648239 173 43 C169.37 42.34 165.74 41.68 162 41 C162 40.34 162 39.68 162 39 C172.23 39 182.46 39 193 39 C193 39.66 193 40.32 193 41 C192.2265625 41.06316406 191.453125 41.12632812 190.65625 41.19140625 C182.51982864 42.14803995 178.48500861 44.03676111 173 50 C171.95659689 51.09848111 170.91224527 52.1960617 169.8671875 53.29296875 C164.68118556 58.77938161 159.60527773 64.36319313 154.671875 70.078125 C152.64241927 72.41105074 150.572353 74.70511245 148.5 77 C146.99971761 78.66641247 145.49970668 80.33306939 144 82 C143.34386719 82.72703125 142.68773437 83.4540625 142.01171875 84.203125 C138.65491023 87.96965105 135.67512717 91.71979653 133 96 C133.9080162 97.13199353 134.82683826 98.25532363 135.75 99.375 C136.26046875 100.00148438 136.7709375 100.62796875 137.296875 101.2734375 C139.82467131 103.83602 141.84307579 104.89061133 145.4375 105.23046875 C146.283125 105.21628906 147.12875 105.20210938 148 105.1875 C148.845625 105.18105469 149.69125 105.17460937 150.5625 105.16796875 C152.83252477 105.01154076 154.81961604 104.63089814 157 104 C157.33 104.99 157.66 105.98 158 107 C161.18199952 104.06742087 163.64285583 100.85516824 166.16064453 97.36450195 C174.21695224 86.20753344 182.89753821 76.04865387 197 73 C211.98750186 71.68911342 223.41547394 73.52151841 235.5546875 82.859375 C244.53230477 90.71837542 249.04567921 101.05483316 250.29296875 112.74609375 C250.8112208 123.29322331 247.58730355 134.06727762 240.703125 142.203125 C240.14109375 142.79609375 239.5790625 143.3890625 239 144 C238.06414062 145.01320313 238.06414062 145.01320313 237.109375 146.046875 C229.48168415 153.56156302 220.29748846 158.19360448 209.56030273 158.45629883 C206.49943601 158.43070018 203.45258451 158.2992257 200.39697266 158.12207031 C197.92278389 157.99606763 195.45760141 157.95555584 192.98046875 157.9296875 C183.10364059 157.75264548 174.97643387 157.24760047 167.23828125 150.453125 C162.39738118 145.35268949 158.61521493 139.21322668 154.73071289 133.37182617 C154.27688232 132.6935376 153.82305176 132.01524902 153.35546875 131.31640625 C152.94965576 130.70224854 152.54384277 130.08809082 152.12573242 129.45532227 C151.0462555 127.84235786 151.0462555 127.84235786 149 127 C148.05640625 128.52367187 148.05640625 128.52367187 147.09375 130.078125 C141.87121986 138.48662391 136.5556118 146.80624852 131 155 C132.32 155 133.64 155 135 155 C135 155.66 135 156.32 135 157 C133.96230469 157.17015625 132.92460937 157.3403125 131.85546875 157.515625 C126.84423917 158.96071205 124.9851921 162.52103931 122.3125 166.75 C121.26849483 168.30836869 120.21890258 169.86300733 119.1640625 171.4140625 C118.6371582 172.19040039 118.11025391 172.96673828 117.56738281 173.76660156 C106.11206855 190.08953223 90.9767118 204.21741889 75 216 C73.71029297 216.98226562 73.71029297 216.98226562 72.39453125 217.984375 C51.62618918 233.29806279 28.43455249 237.04694626 3.08789062 233.60449219 C-19.56713637 229.31259452 -40.01597084 213.9786675 -52.87646484 195.16455078 C-56.96812183 188.83340454 -59.58545343 182.11153685 -62 175 C-62.41378906 173.86433594 -62.82757813 172.72867188 -63.25390625 171.55859375 C-70.24842511 149.74641822 -66.47400665 125.98684686 -56.1953125 105.94140625 C-44.67025262 84.6410841 -25.55937466 70.04645774 -2.6640625 62.96875 C2.38818991 61.62148269 6.76475427 60.94851466 12 61 C11.95840398 53.38241304 11.88614946 45.76556102 11.79248047 38.1484375 C11.76423893 35.55670812 11.74304035 32.96489211 11.72900391 30.37304688 C11.70761938 26.64928729 11.66098914 22.92657299 11.609375 19.203125 C11.60814636 18.04258606 11.60691772 16.88204712 11.60565186 15.68634033 C11.58593323 14.60552185 11.5662146 13.52470337 11.54589844 12.41113281 C11.53701599 11.46071106 11.52813354 10.51028931 11.51898193 9.53106689 C10.8425553 6.23214464 9.63336675 5.04502489 7 3 C3.35278304 2.19234122 3.35278304 2.19234122 0 2 C0 1.34 0 0.68 0 0 Z M101 42 C99.88362562 43.59568142 99.88362562 43.59568142 98.8125 45.625 C94.29413176 53.13346488 87.88113269 57.76364652 79.34790039 59.92504883 C77.99617697 60.17871946 76.64167145 60.41787841 75.28515625 60.64453125 C74.54967056 60.77036087 73.81418488 60.89619049 73.05641174 61.02583313 C64.54498599 62.37675597 56.03848894 62.56203694 47.4375 62.6875 C45.82875069 62.72080239 44.22002573 62.75530303 42.61132812 62.79101562 C38.74102463 62.8744042 34.870762 62.94188238 31 63 C30.90718996 70.34540978 30.8361798 77.69069248 30.79275131 85.03657055 C30.77190424 88.44784999 30.74364103 91.85872734 30.69824219 95.26977539 C30.64634041 99.19412369 30.62703078 103.11831096 30.609375 107.04296875 C30.57840729 108.87446724 30.57840729 108.87446724 30.54681396 110.7429657 C30.54651184 111.8837709 30.54620972 113.02457611 30.54589844 114.19995117 C30.53257477 115.7021949 30.53257477 115.7021949 30.51898193 117.23478699 C31.13269883 120.76284145 32.55526211 122.43471905 35 125 C37.70879335 126.35439668 40.00933268 126.06501451 43 126 C43 126.66 43 127.32 43 128 C28.81 128 14.62 128 0 128 C0 127.34 0 126.68 0 126 C1.258125 125.896875 2.51625 125.79375 3.8125 125.6875 C6.44935727 125.35672815 7.74549547 125.18061612 9.9375 123.625 C12.10846571 120.3046995 12.12216306 117.36256116 12.11352539 113.51879883 C12.11344986 112.39786331 12.11337433 111.2769278 12.11329651 110.12202454 C12.10813522 108.91257675 12.10297394 107.70312897 12.09765625 106.45703125 C12.0962413 105.21829758 12.09482635 103.9795639 12.09336853 102.70329285 C12.08871602 99.41368463 12.0797339 96.1241254 12.06866455 92.83453369 C12.05842629 89.47628377 12.05386574 86.11802667 12.04882812 82.75976562 C12.03779145 76.17315788 12.02104767 69.58658295 12 63 C-10.29400084 65.61315762 -30.36707599 75.58363936 -45 93 C-59.15956258 112.46939855 -66.59770584 133.7979661 -64 158 C-62.90039797 164.49962787 -61.06986361 170.75123687 -59 177 C-58.68933594 177.98484375 -58.37867187 178.9696875 -58.05859375 179.984375 C-51.1116319 199.54801645 -33.5328976 216.09203427 -15.10839844 224.90478516 C4.48860354 233.69118781 28.60717062 235.62090132 49.08349609 228.25 C76.29668001 217.55534869 98.62784971 194.49390719 116.25 171.875 C116.86101562 171.10285156 117.47203125 170.33070313 118.1015625 169.53515625 C118.98714844 168.40013672 118.98714844 168.40013672 119.890625 167.2421875 C120.41688477 166.5704248 120.94314453 165.89866211 121.48535156 165.20654297 C123.43324641 162.47720576 123.43324641 162.47720576 126 157 C115.44 157 104.88 157 94 157 C94 156.34 94 155.68 94 155 C94.61488281 154.97421875 95.22976563 154.9484375 95.86328125 154.921875 C97.07564453 154.83679688 97.07564453 154.83679688 98.3125 154.75 C99.11300781 154.70359375 99.91351563 154.6571875 100.73828125 154.609375 C103.05238922 154.16406108 103.05238922 154.16406108 104.61709595 152.58300781 C106.78253315 148.53837347 106.41701168 144.58090842 106.38818359 140.0625 C106.39344055 139.05396973 106.39869751 138.04543945 106.40411377 137.00634766 C106.41732365 133.67074116 106.40857194 130.3356114 106.3984375 127 C106.40045794 124.68359282 106.40336913 122.36718625 106.40713501 120.05078125 C106.41155971 115.19525092 106.40512244 110.3398861 106.39111328 105.484375 C106.37402151 99.25645777 106.38386188 93.02892838 106.40183067 86.80102539 C106.41266444 82.01754833 106.409224 77.23416341 106.4014473 72.45068359 C106.39944417 70.15413365 106.40190848 67.85757537 106.40888596 65.56103516 C106.41649354 62.35296424 106.4049054 59.14552389 106.38818359 55.9375 C106.39729263 54.50978271 106.39729263 54.50978271 106.40658569 53.05322266 C106.37984313 48.01304173 106.37984313 48.01304173 104.60073853 43.37890625 C103.09957516 41.78244767 103.09957516 41.78244767 101 42 Z " fill="#030303" transform="translate(163,130)"/>
<path d="M0 0 C10.47494096 5.50320139 18.12498754 12.98093982 22.38671875 24.25390625 C25.3844628 35.83978189 24.36099809 48.88320464 18.38671875 59.25390625 C11.68462813 68.77406056 3.37383905 74.3355964 -7.73828125 77.62890625 C-16.89490266 79.10578067 -26.02791038 78.89026241 -34.03125 73.6796875 C-37.52581833 70.39659078 -39.98053827 66.67998367 -42.61328125 62.69140625 C-43.75058887 60.99040834 -44.88863272 59.28990249 -46.02734375 57.58984375 C-46.61161133 56.71424805 -47.19587891 55.83865234 -47.79785156 54.93652344 C-49.62495391 52.23665783 -51.49691555 49.57425188 -53.38671875 46.91796875 C-53.99 46.06275635 -54.59328125 45.20754395 -55.21484375 44.32641602 C-56.3801315 42.67714242 -57.55437703 41.03415476 -58.73828125 39.39819336 C-59.52332031 38.27682983 -59.52332031 38.27682983 -60.32421875 37.1328125 C-60.79134277 36.47869385 -61.2584668 35.8245752 -61.73974609 35.15063477 C-62.61328125 33.25390625 -62.61328125 33.25390625 -62.37939453 31.20532227 C-61.13074604 28.02481002 -59.11307648 25.37105815 -57.11328125 22.62890625 C-56.66331787 22.01080078 -56.21335449 21.39269531 -55.74975586 20.75585938 C-48.79175371 11.32376516 -42.49623168 4.13474462 -31.61328125 -0.74609375 C-30.48019531 -1.30683594 -30.48019531 -1.30683594 -29.32421875 -1.87890625 C-20.37695146 -4.7410004 -8.4848754 -3.7291872 0 0 Z " fill="#FDFDFD" transform="translate(386.61328125,207.74609375)"/>
<path d="M0 0 C36.3880597 0 36.3880597 0 44.73046875 7.5703125 C51.29517827 14.79959755 52.50813341 21.4276742 52.4375 30.9375 C52.4674707 32.36352539 52.4674707 32.36352539 52.49804688 33.81835938 C52.49260983 41.70751042 50.80602865 47.13019797 45.25 52.8125 C31.65213063 61.96491207 16.23062124 59 0 59 C0 39.53 0 20.06 0 0 Z " fill="#FCFCFC" transform="translate(194,132)"/>
<path d="M0 0 C10.23 0 20.46 0 31 0 C31 0.66 31 1.32 31 2 C30.2265625 2.06316406 29.453125 2.12632812 28.65625 2.19140625 C20.51982864 3.14803995 16.48500861 5.03676111 11 11 C9.95659689 12.09848111 8.91224527 13.1960617 7.8671875 14.29296875 C2.68118556 19.77938161 -2.39472227 25.36319313 -7.328125 31.078125 C-9.35758073 33.41105074 -11.427647 35.70511245 -13.5 38 C-15.00028239 39.66641247 -16.50029332 41.33306939 -18 43 C-18.65613281 43.72703125 -19.31226563 44.4540625 -19.98828125 45.203125 C-23.34508977 48.96965105 -26.32487283 52.71979653 -29 57 C-28.0919838 58.13199353 -27.17316174 59.25532363 -26.25 60.375 C-25.73953125 61.00148437 -25.2290625 61.62796875 -24.703125 62.2734375 C-22.17532869 64.83602 -20.15692421 65.89061133 -16.5625 66.23046875 C-15.716875 66.21628906 -14.87125 66.20210938 -14 66.1875 C-13.154375 66.18105469 -12.30875 66.17460937 -11.4375 66.16796875 C-9.16747523 66.01154076 -7.18038396 65.63089814 -5 65 C-4.67 65.99 -4.34 66.98 -4 68 C-0.81800048 65.06742087 1.64285583 61.85516824 4.16064453 58.36450195 C12.21695224 47.20753344 20.89753821 37.04865387 35 34 C49.98750186 32.68911342 61.41547394 34.52151841 73.5546875 43.859375 C82.53230477 51.71837542 87.04567921 62.05483316 88.29296875 73.74609375 C88.8112208 84.29322331 85.58730355 95.06727762 78.703125 103.203125 C78.14109375 103.79609375 77.5790625 104.3890625 77 105 C76.37609375 105.67546875 75.7521875 106.3509375 75.109375 107.046875 C67.48168415 114.56156302 58.29748846 119.19360448 47.56030273 119.45629883 C44.49943601 119.43070018 41.45258451 119.2992257 38.39697266 119.12207031 C35.92278389 118.99606763 33.45760141 118.95555584 30.98046875 118.9296875 C21.10364059 118.75264548 12.97643387 118.24760047 5.23828125 111.453125 C0.39738118 106.35268949 -3.38478507 100.21322668 -7.26928711 94.37182617 C-7.72311768 93.6935376 -8.17694824 93.01524902 -8.64453125 92.31640625 C-9.05034424 91.70224854 -9.45615723 91.08809082 -9.87426758 90.45532227 C-10.9537445 88.84235786 -10.9537445 88.84235786 -13 88 C-13.6290625 89.01578125 -14.258125 90.0315625 -14.90625 91.078125 C-20.12878014 99.48662391 -25.4443882 107.80624852 -31 116 C-36.75 114.375 -36.75 114.375 -39 111 C-39.26742554 108.91981506 -39.26742554 108.91981506 -39.29052734 106.50024414 C-39.30328705 105.59242691 -39.31604675 104.68460968 -39.32919312 103.74928284 C-39.33141876 102.77112106 -39.33364441 101.79295929 -39.3359375 100.78515625 C-39.3425943 99.77786972 -39.3492511 98.77058319 -39.35610962 97.73277283 C-39.36623725 95.60189644 -39.37092661 93.47098832 -39.37060547 91.34008789 C-39.37497867 88.078408 -39.41129789 84.81808103 -39.44921875 81.55664062 C-39.45508682 79.4869838 -39.45905628 77.41732054 -39.4609375 75.34765625 C-39.47530853 74.37151871 -39.48967957 73.39538116 -39.50448608 72.3896637 C-39.4583453 65.55867592 -39.4583453 65.55867592 -37.03369141 62.60327148 C-36.36257324 62.07419189 -35.69145508 61.5451123 -35 61 C-34.63111182 59.67606254 -34.29563064 58.34219649 -34 57 C-32.71240234 55.29589844 -32.71240234 55.29589844 -31.0859375 53.609375 C-30.49337158 52.98651611 -29.90080566 52.36365723 -29.2902832 51.72192383 C-28.65823975 51.07118896 -28.02619629 50.4204541 -27.375 49.75 C-26.08377326 48.39535252 -24.79339771 47.03989315 -23.50390625 45.68359375 C-22.88918457 45.04019043 -22.27446289 44.39678711 -21.64111328 43.73388672 C-19.26721589 41.22579102 -17.01180919 38.62630566 -14.76171875 36.0078125 C-12.89704952 33.88266841 -10.98181568 31.80813689 -9.05957031 29.73510742 C-4.14668153 24.43510708 0.52406846 19.03145046 5.02734375 13.375 C7 11 7 11 9.25390625 8.875 C11.3407515 7.06111265 11.3407515 7.06111265 11 4 C7.37 3.34 3.74 2.68 0 2 C0 1.34 0 0.68 0 0 Z M26 40 C24.88625 40.63615234 24.88625 40.63615234 23.75 41.28515625 C15.09440416 46.53407332 9.37883082 54.29778933 3.4375 62.3125 C2.75602905 63.2106543 2.75602905 63.2106543 2.06079102 64.12695312 C-0.35550127 67.22873554 -0.35550127 67.22873554 -0.7590332 70.96069336 C0.0520977 73.13997172 1.03258256 74.84080606 2.3359375 76.765625 C3.05910156 77.84227417 3.05910156 77.84227417 3.796875 78.94067383 C4.57804687 80.08379028 4.57804687 80.08379028 5.375 81.25 C5.90867187 82.03979248 6.44234375 82.82958496 6.9921875 83.64331055 C8.65521169 86.09985026 10.3269493 88.5502809 12 91 C13.03391256 92.52209576 14.06776889 94.0442297 15.1015625 95.56640625 C16.06701994 96.9822405 17.03313608 98.39762586 18 99.8125 C18.4439209 100.4631543 18.8878418 101.11380859 19.34521484 101.78417969 C24.49161604 109.2652131 28.53674269 113.95897138 37.375 116.75 C49.1579734 117.87218794 60.20995349 115.9202499 69.94140625 108.7421875 C78.11317599 101.82642032 83.9494653 93.82285003 85.25 82.90039062 C86.12313377 70.62194697 84.12910374 61.08350709 77 51 C75.9171875 49.453125 75.9171875 49.453125 74.8125 47.875 C71.30713705 43.84218432 66.6992189 41.41368971 62 39 C61.33484375 38.65582031 60.6696875 38.31164062 59.984375 37.95703125 C49.90702082 33.73168393 35.19265835 34.05071909 26 40 Z " fill="#060606" transform="translate(325,169)"/>
<path d="M0 0 C17.49 0 34.98 0 53 0 C53 0.33 53 0.66 53 1 C45.74 1 38.48 1 31 1 C31 20.8 31 40.6 31 61 C32.32 61.33 33.64 61.66 35 62 C33.02 62.495 33.02 62.495 31 63 C31.01489051 70.3458632 31.05655257 77.69106505 31.13209057 85.03657055 C31.16633468 88.44772768 31.19146631 91.85843825 31.19555664 95.26977539 C31.20066642 99.1945785 31.24579916 103.11843673 31.29296875 107.04296875 C31.2890361 108.26396774 31.28510345 109.48496674 31.28105164 110.7429657 C31.16747618 117.55169782 31.16747618 117.55169782 34.3371582 123.2590332 C37.3030984 125.19816583 39.48550176 125.75480245 43 126 C43 126.66 43 127.32 43 128 C28.81 128 14.62 128 0 128 C0 127.34 0 126.68 0 126 C0.62648437 125.82984375 1.25296875 125.6596875 1.8984375 125.484375 C2.71570313 125.24203125 3.53296875 124.9996875 4.375 124.75 C5.18710938 124.51796875 5.99921875 124.2859375 6.8359375 124.046875 C9.55863652 122.72975706 9.90237674 121.77524907 11 119 C11.30302345 116.73405884 11.30302345 116.73405884 11.26742554 114.29394531 C11.28022049 112.88079041 11.28022049 112.88079041 11.29327393 111.43908691 C11.29236755 110.41246948 11.29146118 109.38585205 11.29052734 108.328125 C11.29724457 107.24156616 11.30396179 106.15500732 11.31088257 105.03552246 C11.32989618 101.44030194 11.33378819 97.84526768 11.3359375 94.25 C11.342362 91.75423098 11.3490901 89.25846273 11.35610962 86.76269531 C11.36809003 81.53058664 11.37187513 76.29852534 11.37060547 71.06640625 C11.36940307 65.02006521 11.3905265 58.97408056 11.4220928 52.92782974 C11.4513938 47.10790809 11.45858175 41.28812766 11.45738602 35.46813965 C11.45975027 32.99294578 11.46861979 30.51774943 11.48405075 28.04260254 C11.50358956 24.58538985 11.49792021 21.12910175 11.48583984 17.671875 C11.49707886 16.64525757 11.50831787 15.61864014 11.51989746 14.56091309 C11.53524534 9.13428618 11.53524534 9.13428618 9.20401001 4.37988281 C6.20908913 2.50482788 3.48461249 2.26804711 0 2 C0 1.34 0 0.68 0 0 Z " fill="#000000" transform="translate(163,130)"/>
<path d="M0 0 C-1 2 -1 2 -2.8190918 2.66674805 C-3.60453369 2.86308838 -4.38997559 3.05942871 -5.19921875 3.26171875 C-6.50838257 3.60360229 -6.50838257 3.60360229 -7.84399414 3.95239258 C-9.25152954 4.31627075 -9.25152954 4.31627075 -10.6875 4.6875 C-34.54558303 11.21841612 -52.70232845 24.48642634 -65 46 C-75.87543608 65.72529204 -78.30966378 87.96276789 -72.05419922 109.59350586 C-71.39455476 111.73814811 -70.70552297 113.87007902 -70 116 C-69.68933594 116.98484375 -69.37867187 117.9696875 -69.05859375 118.984375 C-61.73215743 139.61667102 -43.9167643 154.38130629 -25 164 C-6.37140389 172.23067384 17.86921052 173.16660245 37.08349609 166.25 C63.95125476 155.69109916 86.00959101 133.11995022 103.3125 110.6875 C103.93189453 109.89021484 104.55128906 109.09292969 105.18945312 108.27148438 C107.54995904 105.22409943 109.86084959 102.20872562 112 99 C112.99 99.33 113.98 99.66 115 100 C99.77357034 120.70050384 83.80268006 139.65834096 63 155 C61.71029297 155.98226562 61.71029297 155.98226562 60.39453125 156.984375 C39.62618918 172.29806279 16.43455249 176.04694626 -8.91210938 172.60449219 C-31.56713637 168.31259452 -52.01597084 152.9786675 -64.87646484 134.16455078 C-68.96812183 127.83340454 -71.58545343 121.11153685 -74 114 C-74.41378906 112.86433594 -74.82757813 111.72867188 -75.25390625 110.55859375 C-82.24842511 88.74641822 -78.47400665 64.98684686 -68.1953125 44.94140625 C-56.67025262 23.6410841 -37.55937466 9.04645774 -14.6640625 1.96875 C-9.63311611 0.6271643 -5.22649878 -0.1383485 0 0 Z " fill="#101010" transform="translate(175,191)"/>
<path d="M0 0 C4.0581811 1.51169496 5.53762484 3.90467796 7.8125 7.5 C10.97296693 12.44268513 14.2933383 17.17724941 17.84765625 21.84375 C19 24 19 24 18.77661133 25.79101562 C17.77697907 28.63435818 16.33326075 30.94916832 14.7265625 33.5 C14.0665625 34.551875 13.4065625 35.60375 12.7265625 36.6875 C12.03304688 37.780625 11.33953125 38.87375 10.625 40 C9.93921875 41.093125 9.2534375 42.18625 8.546875 43.3125 C3.01329119 52.09733344 3.01329119 52.09733344 0 56 C-1.875 55.6875 -1.875 55.6875 -4 55 C-6.082504 51.876244 -6.2608343 51.09669813 -6.32226562 47.53198242 C-6.34148071 46.63062057 -6.3606958 45.72925873 -6.38049316 44.80058289 C-6.38899292 43.82869522 -6.39749268 42.85680756 -6.40625 41.85546875 C-6.41765015 40.85292557 -6.42905029 39.85038239 -6.4407959 38.81745911 C-6.45969292 36.69499939 -6.47276272 34.57248102 -6.48046875 32.44995117 C-6.49986693 29.20972723 -6.56189838 25.97204924 -6.625 22.73242188 C-6.6380622 20.66928589 -6.64856231 18.60613177 -6.65625 16.54296875 C-6.69329041 15.09424629 -6.69329041 15.09424629 -6.7310791 13.61625671 C-6.69903613 8.75381636 -6.47688853 5.8830789 -2.95898438 2.34106445 C-1.98251953 1.56851318 -1.00605469 0.79596191 0 0 Z " fill="#F5F5F5" transform="translate(292,228)"/>
<path d="M0 0 C9.61698999 6.54006816 16.40734667 15.12182116 19.35546875 26.484375 C21.58405364 38.44512878 19.79712956 48.96294987 13.75390625 59.6171875 C12.32512248 61.65260572 10.81580485 63.42989196 9.10546875 65.234375 C8.4815625 65.90984375 7.85765625 66.5853125 7.21484375 67.28125 C-0.81103531 75.18822715 -10.08755325 79.47229613 -21.29711914 79.63867188 C-24.83915512 79.59670048 -28.35871383 79.45085362 -31.89453125 79.234375 C-28.43154491 77.17530204 -25.30810966 76.79474448 -21.33203125 76.359375 C-8.8672956 74.67670041 0.66570815 70.76354012 8.85546875 61.046875 C16.30290189 50.7704398 17.09744957 40.51316195 16.10546875 28.234375 C14.93664099 21.7698584 11.82100642 16.57252089 8.10546875 11.234375 C7.54859375 10.368125 6.99171875 9.501875 6.41796875 8.609375 C-1.886423 0.08054023 -12.3532025 -3.03448458 -23.89453125 -3.203125 C-30.70876966 -3.15883626 -36.06495078 -2.54253629 -41.89453125 1.234375 C-43.02568359 1.88792969 -43.02568359 1.88792969 -44.1796875 2.5546875 C-55.35213803 9.38125995 -61.75570057 20.59713002 -68.89453125 31.234375 C-69.55453125 30.244375 -70.21453125 29.254375 -70.89453125 28.234375 C-53.43863855 4.71740845 -31.03296472 -18.92968968 0 0 Z " fill="#191919" transform="translate(392.89453125,208.765625)"/>
<path d="M0 0 C-1 2 -1 2 -2.8190918 2.66674805 C-3.60453369 2.86308838 -4.38997559 3.05942871 -5.19921875 3.26171875 C-6.50838257 3.60360229 -6.50838257 3.60360229 -7.84399414 3.95239258 C-9.25152954 4.31627075 -9.25152954 4.31627075 -10.6875 4.6875 C-34.54558303 11.21841612 -52.70232845 24.48642634 -65 46 C-77.10419283 67.9539462 -77.50395026 91.21993186 -71 115 C-71.99 114.67 -72.98 114.34 -74 114 C-81.58804904 97.52961932 -80.02107876 74.73369854 -74 58 C-64.909333 34.16843388 -48.10570869 16.04936432 -24.875 5.625 C-16.74622108 2.33695459 -8.82748876 -0.23366882 0 0 Z " fill="#262626" transform="translate(175,191)"/>
<path d="M0 0 C10.23 0 20.46 0 31 0 C31 0.66 31 1.32 31 2 C30.2265625 2.06316406 29.453125 2.12632812 28.65625 2.19140625 C20.51982864 3.14803995 16.48500861 5.03676111 11 11 C9.95659689 12.09848111 8.91224527 13.1960617 7.8671875 14.29296875 C2.68118556 19.77938161 -2.39472227 25.36319313 -7.328125 31.078125 C-9.35758073 33.41105074 -11.427647 35.70511245 -13.5 38 C-15.00028239 39.66641247 -16.50029332 41.33306939 -18 43 C-18.65613281 43.72703125 -19.31226563 44.4540625 -19.98828125 45.203125 C-23.33036829 48.95313273 -26.54519093 52.60180041 -29 57 C-28.67 57.99 -28.34 58.98 -28 60 C-30.62113708 60 -32.50935112 59.68707555 -35 59 C-28.47298936 51.35862168 -21.8589614 43.8217356 -15.05249023 36.42749023 C-11.89717103 32.99435101 -8.80030879 29.51906122 -5.74609375 25.99609375 C-3.66797979 23.62044222 -1.55381024 21.27917439 0.5625 18.9375 C1.3153125 18.09960938 2.068125 17.26171875 2.84375 16.3984375 C4.19222205 14.89850663 5.54560768 13.40296208 6.90625 11.9140625 C10.19883024 8.49648239 10.19883024 8.49648239 11 4 C7.37 3.34 3.74 2.68 0 2 C0 1.34 0 0.68 0 0 Z " fill="#1E1E1E" transform="translate(325,169)"/>
<path d="M0 0 C0.99 0.33 1.98 0.66 3 1 C-12.21208372 21.68100038 -28.17871035 40.71275637 -49 56 C-49.98742187 56.73605469 -50.97484375 57.47210938 -51.9921875 58.23046875 C-58.56100299 63 -58.56100299 63 -62 63 C-62 62.34 -62 61.68 -62 61 C-59.67577539 59.32325978 -57.3390254 57.74667883 -54.9375 56.1875 C-36.84065393 44.10197174 -21.93480394 28.86203905 -8.6875 11.6875 C-8.06810547 10.89021484 -7.44871094 10.09292969 -6.81054688 9.27148438 C-4.45004096 6.22409943 -2.13915041 3.20872562 0 0 Z " fill="#1B1B1B" transform="translate(287,290)"/>
<path d="M0 0 C0.99 0 1.98 0 3 0 C3.95761153 11.6190199 1.38109886 23.12915589 -6.296875 32.203125 C-6.85890625 32.79609375 -7.4209375 33.3890625 -8 34 C-8.62390625 34.67546875 -9.2478125 35.3509375 -9.890625 36.046875 C-17.91650406 43.95385215 -27.193022 48.23792113 -38.40258789 48.40429688 C-41.94462387 48.36232548 -45.46418258 48.21647862 -49 48 C-45.53701366 45.94092704 -42.41357841 45.56036948 -38.4375 45.125 C-25.97276435 43.44232541 -16.4397606 39.52916512 -8.25 29.8125 C-1.53465153 20.61339251 -0.32631901 11.17642617 0 0 Z " fill="#222222" transform="translate(410,240)"/>
<path d="M0 0 C-1 2 -1 2 -2.8190918 2.66674805 C-3.60453369 2.86308838 -4.38997559 3.05942871 -5.19921875 3.26171875 C-6.07199463 3.48964111 -6.94477051 3.71756348 -7.84399414 3.95239258 C-9.25152954 4.31627075 -9.25152954 4.31627075 -10.6875 4.6875 C-28.04106926 9.4378693 -42.73548134 17.56948837 -55 31 C-55.33 30.01 -55.66 29.02 -56 28 C-42.17436337 12.74082962 -21.27121761 -0.56306164 0 0 Z " fill="#1C1C1C" transform="translate(175,191)"/>
<path d="M0 0 C3.33024941 2.22016627 3.49231272 2.77194762 4.6875 6.375 C11.43690112 24.11774384 26.00054293 37.51884025 42 47 C40.37890625 47.734375 40.37890625 47.734375 38 48 C20.62713626 38.94418625 5.89306755 21.656445 0 3 C0 2.01 0 1.02 0 0 Z " fill="#222222" transform="translate(102,305)"/>
<path d="M0 0 C0.69738281 0.05220703 1.39476562 0.10441406 2.11328125 0.15820312 C3.82596203 0.28724072 5.53805066 0.42409614 7.25 0.5625 C7.25 0.8925 7.25 1.2225 7.25 1.5625 C5.78240234 1.60117188 5.78240234 1.60117188 4.28515625 1.640625 C-3.46010609 1.97571993 -9.97333017 2.51460371 -16.75 6.5625 C-17.50796875 6.99691406 -18.2659375 7.43132812 -19.046875 7.87890625 C-30.20084754 14.74720813 -36.60409065 25.9147074 -43.75 36.5625 C-44.41 35.5725 -45.07 34.5825 -45.75 33.5625 C-19.6389246 -1.61492102 -19.6389246 -1.61492102 0 0 Z " fill="#252525" transform="translate(367.75,203.4375)"/>
<path d="M0 0 C10.23 0 20.46 0 31 0 C31 0.66 31 1.32 31 2 C30.18015625 2.10957031 29.3603125 2.21914062 28.515625 2.33203125 C26.89914062 2.56986328 26.89914062 2.56986328 25.25 2.8125 C24.18265625 2.96332031 23.1153125 3.11414063 22.015625 3.26953125 C18.90598404 4.0227733 17.46007952 5.04798038 15 7 C14.01 7 13.02 7 12 7 C11.67 6.01 11.34 5.02 11 4 C7.37 3.34 3.74 2.68 0 2 C0 1.34 0 0.68 0 0 Z " fill="#0D0D0D" transform="translate(325,169)"/>
<path d="M0 0 C4.86008136 0.33907544 8.78528685 1.61805263 13.3125 3.4375 C24.45961817 7.82802214 35.14968272 8.47759622 47 9 C47 9.33 47 9.66 47 10 C29.86310047 11.91887678 15.07204271 9.8993217 0 1 C0 0.67 0 0.34 0 0 Z " fill="#222222" transform="translate(141,353)"/>
<path d="M0 0 C0.99 0.33 1.98 0.66 3 1 C-7.88562775 10.14627251 -18.42191804 10.6789041 -32 10 C-28.53701366 7.94092704 -25.41357841 7.56036948 -21.4375 7.125 C-13.72745481 6.11094395 -6.52547721 4.35031814 0 0 Z " fill="#232323" transform="translate(393,278)"/>
<path d="M0 0 C0.66 0.66 1.32 1.32 2 2 C-3.84712234 11.44166475 -9.76671874 20.80678071 -16 30 C-16.66 29.67 -17.32 29.34 -18 29 C-16.60309399 26.09885972 -15.04308094 23.38350332 -13.3203125 20.6640625 C-12.80339844 19.84679687 -12.28648437 19.02953125 -11.75390625 18.1875 C-11.21636719 17.341875 -10.67882812 16.49625 -10.125 15.625 C-9.33029297 14.36816406 -9.33029297 14.36816406 -8.51953125 13.0859375 C-5.73223352 8.68712521 -2.91131935 4.31775381 0 0 Z " fill="#191919" transform="translate(310,255)"/>
<path d="M0 0 C3.49907057 1.50643357 5.82179434 3.56418865 8.5625 6.1875 C13.63958862 10.86356672 19.07118478 14.49455982 25 18 C23.390625 18.74609375 23.390625 18.74609375 21 19 C18.72941952 17.77761077 16.81266836 16.57316558 14.75 15.0625 C14.17805908 14.65443115 13.60611816 14.2463623 13.0168457 13.82592773 C8.26994647 10.36262539 3.66950496 6.62291108 0 2 C0 1.34 0 0.68 0 0 Z " fill="#212121" transform="translate(119,334)"/>
<path d="M0 0 C0.99 0.33 1.98 0.66 3 1 C2.57589844 1.4125 2.15179688 1.825 1.71484375 2.25 C-2.75504701 6.65112321 -6.91109365 11.24608471 -11 16 C-12.31122788 17.50111215 -13.62369046 19.00114686 -14.9375 20.5 C-15.52402344 21.1703125 -16.11054688 21.840625 -16.71484375 22.53125 C-17.13894531 23.0159375 -17.56304687 23.500625 -18 24 C-18.99 23.67 -19.98 23.34 -21 23 C-20.52691406 22.55011719 -20.05382812 22.10023438 -19.56640625 21.63671875 C-14.67523146 16.87902632 -10.32126998 11.85771401 -6.078125 6.515625 C-4.1626021 4.19683412 -2.1638136 2.08583833 0 0 Z " fill="#222222" transform="translate(336,176)"/>
<path d="M0 0 C-10.56 0 -21.12 0 -32 0 C-31.67 -0.66 -31.34 -1.32 -31 -2 C-27.08375299 -2.19706355 -23.16699634 -2.38099159 -19.25 -2.5625 C-18.13882813 -2.61857422 -17.02765625 -2.67464844 -15.8828125 -2.73242188 C-14.81289062 -2.78076172 -13.74296875 -2.82910156 -12.640625 -2.87890625 C-11.65610352 -2.9260376 -10.67158203 -2.97316895 -9.65722656 -3.02172852 C-5.51123175 -2.98782613 -3.4774672 -2.31831146 0 0 Z " fill="#0B0B0B" transform="translate(229,193)"/>
<path d="M0 0 C1.98 0 3.96 0 6 0 C6.33 1.65 6.66 3.3 7 5 C5.35 5.33 3.7 5.66 2 6 C2 7.32 2 8.64 2 10 C1.34 10 0.68 10 0 10 C0 6.7 0 3.4 0 0 Z " fill="#888888" transform="translate(135,304)"/>
<path d="M0 0 C1.55533447 0.14139404 1.55533447 0.14139404 3.14208984 0.28564453 C4.26357422 0.38232422 5.38505859 0.47900391 6.54052734 0.57861328 C7.71615234 0.69076172 8.89177734 0.80291016 10.10302734 0.91845703 C11.28638672 1.02287109 12.46974609 1.12728516 13.68896484 1.23486328 C16.61964792 1.49484323 19.54907268 1.76477979 22.47802734 2.04345703 C22.47802734 2.37345703 22.47802734 2.70345703 22.47802734 3.04345703 C19.47847537 3.26721393 16.47943806 3.47280952 13.47802734 3.66845703 C12.63884766 3.73291016 11.79966797 3.79736328 10.93505859 3.86376953 C5.32684151 4.21156594 0.86006456 3.67550998 -4.52197266 2.04345703 C-2.52197266 0.04345703 -2.52197266 0.04345703 0 0 Z " fill="#303030" transform="translate(165.52197265625,359.95654296875)"/>
<path d="M0 0 C3.34905453 3.34905453 3.89470285 5.49378854 5 10 C2.69 9.34 0.38 8.68 -2 8 C-2 8.66 -2 9.32 -2 10 C-2.66 9.67 -3.32 9.34 -4 9 C-2.68 6.03 -1.36 3.06 0 0 Z " fill="#727272" transform="translate(193,304)"/>
<path d="M0 0 C2.64465038 3.1254959 3.84414715 6.08788267 5 10 C4.34 10 3.68 10 3 10 C3 9.34 3 8.68 3 8 C0.69 8.66 -1.62 9.32 -4 10 C-3.52449439 8.51965236 -3.04448784 7.04074979 -2.5625 5.5625 C-2.29566406 4.73878906 -2.02882812 3.91507812 -1.75390625 3.06640625 C-1 1 -1 1 0 0 Z " fill="#717171" transform="translate(166,304)"/>
<path d="M0 0 C2.08351615 3.58727128 2.80141379 7.20694042 3.625 11.25 C3.88539062 12.51328125 4.14578125 13.7765625 4.4140625 15.078125 C4.60742188 16.04234375 4.80078125 17.0065625 5 18 C4.01 17.67 3.02 17.34 2 17 C-0.35645621 11.51095318 -1.73444525 5.83404311 0 0 Z " fill="#272727" transform="translate(99,288)"/>
<path d="M0 0 C0.99 0 1.98 0 3 0 C3.3690205 12.66970387 3.3690205 12.66970387 1 18 C0.34 18 -0.32 18 -1 18 C-0.505 9.09 -0.505 9.09 0 0 Z " fill="#4A4A4A" transform="translate(410,240)"/>
<path d="M0 0 C-0.33 0.66 -0.66 1.32 -1 2 C-3.69058598 2.80045663 -6.33218727 3.4954659 -9.0625 4.125 C-10.20041992 4.39763672 -10.20041992 4.39763672 -11.36132812 4.67578125 C-13.23913735 5.12456584 -15.11935915 5.56323336 -17 6 C-17.33 5.01 -17.66 4.02 -18 3 C-16.12743583 2.49095343 -14.25180659 1.99317545 -12.375 1.5 C-11.33085937 1.2215625 -10.28671875 0.943125 -9.2109375 0.65625 C-6.04312582 0.00881404 -3.22258533 -0.1161292 0 0 Z " fill="#282828" transform="translate(175,191)"/>
<path d="M0 0 C0.66 0 1.32 0 2 0 C2.33 0.66 2.66 1.32 3 2 C3.99 1.34 4.98 0.68 6 0 C5.67 0.928125 5.34 1.85625 5 2.8125 C3.85032996 5.92029291 3.85032996 5.92029291 4 9 C3.67 8.67 3.34 8.34 3 8 C2.67 8.66 2.34 9.32 2 10 C1.34 10 0.68 10 0 10 C0 6.7 0 3.4 0 0 Z " fill="#676767" transform="translate(308,304)"/>
<path d="M0 0 C0.66 0 1.32 0 2 0 C2.33 0.66 2.66 1.32 3 2 C3.99 1.34 4.98 0.68 6 0 C5.67 0.928125 5.34 1.85625 5 2.8125 C3.85032996 5.92029291 3.85032996 5.92029291 4 9 C3.67 8.67 3.34 8.34 3 8 C2.67 8.66 2.34 9.32 2 10 C1.34 10 0.68 10 0 10 C0 6.7 0 3.4 0 0 Z " fill="#666666" transform="translate(177,304)"/>
<path d="M0 0 C1.65 0 3.3 0 5 0 C4.67 0.66 4.34 1.32 4 2 C3.34 2 2.68 2 2 2 C1.67 2.66 1.34 3.32 1 4 C2.32 4.33 3.64 4.66 5 5 C5.5625 6.9375 5.5625 6.9375 6 9 C5 10 5 10 1.9375 10.0625 C0.968125 10.041875 -0.00125 10.02125 -1 10 C-0.67 9.34 -0.34 8.68 0 8 C2.0625 7.375 2.0625 7.375 4 7 C2.35 6.01 0.7 5.02 -1 4 C-0.67 2.68 -0.34 1.36 0 0 Z " fill="#585858" transform="translate(206,304)"/>
<path d="M0 0 C1 4 1 4 -0.43359375 6.578125 C-1.09488281 7.45984375 -1.75617188 8.3415625 -2.4375 9.25 C-3.42556641 10.58804688 -3.42556641 10.58804688 -4.43359375 11.953125 C-4.95050781 12.62859375 -5.46742188 13.3040625 -6 14 C-6.66 13.01 -7.32 12.02 -8 11 C-5.36 7.37 -2.72 3.74 0 0 Z " fill="#282828" transform="translate(330,226)"/>
<path d="M0 0 C0.625 1.8125 0.625 1.8125 1 4 C0.01 5.485 0.01 5.485 -1 7 C-0.67 7.99 -0.34 8.98 0 10 C-2.62113708 10 -4.50935112 9.68707555 -7 9 C-6.57847656 8.51789063 -6.15695312 8.03578125 -5.72265625 7.5390625 C-5.17480469 6.90742188 -4.62695312 6.27578125 -4.0625 5.625 C-3.51722656 4.99851563 -2.97195313 4.37203125 -2.41015625 3.7265625 C-0.93041376 2.04367666 -0.93041376 2.04367666 0 0 Z " fill="#242424" transform="translate(297,219)"/>
<path d="M0 0 C0.99 0.33 1.98 0.66 3 1 C-4.29840547 9.44646925 -4.29840547 9.44646925 -8 13 C-7.39665691 9.29496359 -5.77525763 7.14031852 -3.4375 4.25 C-2.79683594 3.45078125 -2.15617187 2.6515625 -1.49609375 1.828125 C-1.00238281 1.22484375 -0.50867188 0.6215625 0 0 Z " fill="#181818" transform="translate(339,215)"/>
<path d="M0 0 C0.66 0.66 1.32 1.32 2 2 C-0.97 6.95 -0.97 6.95 -4 12 C-4.66 11.67 -5.32 11.34 -6 11 C-4.54955729 6.89041233 -2.48889248 3.56741255 0 0 Z " fill="#202020" transform="translate(310,255)"/>
<path d="M0 0 C3.12436746 2.08291164 3.5365026 2.61276477 4.75 5.9375 C5.14445312 6.97197266 5.14445312 6.97197266 5.546875 8.02734375 C6 10 6 10 5 13 C4.15930585 11.39967863 3.32768495 9.79458829 2.5 8.1875 C1.80390625 6.84751953 1.80390625 6.84751953 1.09375 5.48046875 C0 3 0 3 0 0 Z " fill="#191919" transform="translate(102,305)"/>
<path d="M0 0 C0.99 0.33 1.98 0.66 3 1 C0.16569547 4.2542015 -1.68607774 5.5206753 -6 6 C-6 5.34 -6 4.68 -6 4 C-3.1875 1.8125 -3.1875 1.8125 0 0 Z " fill="#131313" transform="translate(231,347)"/>
<path d="M0 0 C4.2742558 1.5830577 6.26531794 4.50568404 9 8 C6 8 6 8 4.39453125 6.7578125 C3.87246094 6.21898437 3.35039063 5.68015625 2.8125 5.125 C2.28269531 4.59132813 1.75289063 4.05765625 1.20703125 3.5078125 C0 2 0 2 0 0 Z " fill="#131313" transform="translate(119,334)"/>
<path d="M0 0 C1.65 0 3.3 0 5 0 C5 1.32 5 2.64 5 4 C3.35 4 1.7 4 0 4 C0 2.68 0 1.36 0 0 Z " fill="#C5C5C5" transform="translate(363,305)"/>
<path d="M0 0 C1.65 0 3.3 0 5 0 C5 1.32 5 2.64 5 4 C3.35 4 1.7 4 0 4 C0 2.68 0 1.36 0 0 Z " fill="#C6C6C6" transform="translate(150,305)"/>
<path d="M0 0 C-1.44077046 3.36179774 -3.24750021 5.59156268 -6 8 C-6.66 8 -7.32 8 -8 8 C-6.48291727 4.46014029 -4.24676932 0 0 0 Z " fill="#161616" transform="translate(403,271)"/>
<path d="M0 0 C-1.49097658 3.7952131 -3.75700849 5.61042731 -7 8 C-7 5 -7 5 -4.625 2.3125 C-2 0 -2 0 0 0 Z " fill="#0C0C0C" transform="translate(263,322)"/>
<path d="M0 0 C0.33 0.99 0.66 1.98 1 3 C-1.31 4.98 -3.62 6.96 -6 9 C-4.86634892 4.46539569 -3.35806626 3.09975347 0 0 Z " fill="#111111" transform="translate(125,213)"/>
<path d="M0 0 C-0.66 0 -1.32 0 -2 0 C-2 0.66 -2 1.32 -2 2 C-4.31 2.33 -6.62 2.66 -9 3 C-9.33 2.01 -9.66 1.02 -10 0 C-6.33694766 -0.74926071 -3.57644848 -1.2380014 0 0 Z " fill="#414141" transform="translate(204,361)"/>
<path d="M0 0 C-8.03571429 2.27678571 -8.03571429 2.27678571 -12 1 C-7.62136392 -1.91909072 -4.60643295 -2.90034667 0 0 Z " fill="#242424" transform="translate(214,360)"/>
<path d="M0 0 C4.40114397 0.50298788 6.71195019 2.08772731 10 5 C5.2482602 4.56802365 3.07999946 3.67230705 0 0 Z " fill="#171717" transform="translate(134,348)"/>
<path d="M0 0 C-1.15173355 2.46800047 -2.04783565 4.04783565 -4 6 C-6.125 5.625 -6.125 5.625 -8 5 C-2.25 0 -2.25 0 0 0 Z " fill="#202020" transform="translate(256,329)"/>
<path d="M0 0 C0.99 0 1.98 0 3 0 C2.40138258 2.35171131 1.73075648 4.6859378 1 7 C0.01 7.495 0.01 7.495 -1 8 C-0.67 5.36 -0.34 2.72 0 0 Z " fill="#333333" transform="translate(99,256)"/>
<path d="M0 0 C0.66 0.66 1.32 1.32 2 2 C-0.31 3.65 -2.62 5.3 -5 7 C-3.92643531 2.70574125 -3.4915227 2.25259529 0 0 Z " fill="#171717" transform="translate(131,208)"/>
<path d="M0 0 C0.99 0.33 1.98 0.66 3 1 C3.625 3.875 3.625 3.875 4 7 C3.34 7.66 2.68 8.32 2 9 C1.34 6.03 0.68 3.06 0 0 Z " fill="#262626" transform="translate(407,228)"/>
<path d="M0 0 C0.99 0.33 1.98 0.66 3 1 C1.35 2.65 -0.3 4.3 -2 6 C-2.99 5.67 -3.98 5.34 -5 5 C-3.35 3.35 -1.7 1.7 0 0 Z " fill="#333333" transform="translate(336,176)"/>
</svg>
